<svg id="Layer_1" data-name="Layer 1" xmlns="http://www.w3.org/2000/svg" viewBox="0 0 1024 1024">
    <defs>
        <style>.cls-1{fill:#34b979;}</style>
    </defs>
    <title>icon_</title>
    <path class="cls-1"
          d="M882.86,355.32A403.76,403.76,0,1,0,914.5,512,401.07,401.07,0,0,0,882.86,355.32ZM512,864.5c-194.37,0-352.5-158.13-352.5-352.5S317.63,159.5,512,159.5,864.5,317.63,864.5,512,706.37,864.5,512,864.5Z"/>
    <path class="cls-1"
          d="M699,390a25,25,0,0,0-35.32,1.65L459.89,615.44,351.41,507.82a25,25,0,0,0-35.21,35.5l127,126a25,25,0,0,0,17.6,7.25h.64a25,25,0,0,0,17.85-8.16L700.68,425.26A25,25,0,0,0,699,390Z"/>
</svg>