<svg id="Layer_1" data-name="Layer 1" xmlns="http://www.w3.org/2000/svg" viewBox="0 0 1024 1024"><defs><style>.cls-1{fill:#ffde3f;}</style></defs><title>icon_</title><path class="cls-1" d="M512,914.5a401.3,401.3,0,1,1,156.68-31.64A400.09,400.09,0,0,1,512,914.5Zm0-755c-194.37,0-352.5,158.13-352.5,352.5S317.63,864.5,512,864.5,864.5,706.37,864.5,512,706.37,159.5,512,159.5Z"/><path class="cls-1" d="M447.52,672a25,25,0,0,1-14.15-45.62L600.27,512,433.37,397.62a25,25,0,0,1,28.26-41.24l197,135a25,25,0,0,1,0,41.24l-197,135A24.89,24.89,0,0,1,447.52,672Z"/></svg>