<?xml version="1.0" encoding="UTF-8"?>
<svg width="24px" height="24px" viewBox="0 0 24 24" version="1.1" xmlns="http://www.w3.org/2000/svg" xmlns:xlink="http://www.w3.org/1999/xlink">
    <title>449FED18-BA38-426F-8F85-3F84248D8759@1x</title>
    <g id="Subject-Facing" stroke="none" stroke-width="1" fill="none" fill-rule="evenodd">
        <g id="Status-Icons" transform="translate(-27.000000, -32.000000)">
            <g id="New" transform="translate(27.000000, 32.000000)">
                <g id="Group-2">
                    <g id="Group" fill="#D04A31">
                        <g id="Group-3-Copy-5">
                            <circle id="Oval" cx="12" cy="12" r="12"></circle>
                        </g>
                    </g>
                    <path d="M12.176,13.272 C12.4,13.272 12.5893333,13.1973333 12.744,13.048 C12.8986667,12.8986667 12.992,12.6853333 13.024,12.408 L13.024,12.408 L13.872,7.448 C13.8826667,7.384 13.888,7.29866667 13.888,7.192 C13.888,6.712 13.728,6.33333333 13.408,6.056 C13.088,5.77866667 12.6773333,5.64 12.176,5.64 C11.6853333,5.64 11.2773333,5.776 10.952,6.048 C10.6266667,6.32 10.464,6.696 10.464,7.176 C10.464,7.28266667 10.4693333,7.368 10.48,7.432 L10.48,7.432 L11.312,12.408 C11.3546667,12.6853333 11.4533333,12.8986667 11.608,13.048 C11.7626667,13.1973333 11.952,13.272 12.176,13.272 Z M12.176,18.096 C12.6133333,18.096 12.9786667,17.9466667 13.272,17.648 C13.5653333,17.3493333 13.712,16.9813333 13.712,16.544 C13.712,16.1066667 13.5653333,15.7386667 13.272,15.44 C12.9786667,15.1413333 12.6133333,14.992 12.176,14.992 C11.728,14.992 11.3573333,15.1413333 11.064,15.44 C10.7706667,15.7386667 10.624,16.1066667 10.624,16.544 C10.624,16.9813333 10.7706667,17.3493333 11.064,17.648 C11.3573333,17.9466667 11.728,18.096 12.176,18.096 Z" id="!" fill="#FFFFFF" fill-rule="nonzero"></path>
                </g>
            </g>
        </g>
    </g>
</svg>