<svg id="Layer_1" data-name="Layer 1" xmlns="http://www.w3.org/2000/svg" viewBox="0 0 1024 1024"><defs><style>.cls-1{fill:#2abbd3;}</style></defs><title>icon_</title><path class="cls-1" d="M512,304a25,25,0,0,0-25,25V523.9a25,25,0,0,0,9.86,19.9L669.29,675a25,25,0,1,0,30.27-39.79L537,511.51V329A25,25,0,0,0,512,304Z"/><path class="cls-1" d="M230.28,723.91A25,25,0,0,0,190.35,754,405.37,405.37,0,0,0,225,794.15a25,25,0,0,0,35.66-35A356.21,356.21,0,0,1,230.28,723.91Z"/><path class="cls-1" d="M335.86,206.59a353.08,353.08,0,0,1,41.62-20.52,25,25,0,0,0-19.09-46.21,402.48,402.48,0,0,0-47.55,23.44,25,25,0,1,0,25,43.29Z"/><path class="cls-1" d="M134.57,485.83a25.67,25.67,0,0,0,3.37.23,25,25,0,0,0,24.74-21.66,352.16,352.16,0,0,1,9.24-45.49,25,25,0,1,0-48.24-13.18,402.23,402.23,0,0,0-10.55,52A25,25,0,0,0,134.57,485.83Z"/><path class="cls-1" d="M165.71,578.24a25,25,0,1,0-49.12,9.33,401.09,401.09,0,0,0,13.33,51.34,25,25,0,0,0,47.46-15.75A350.69,350.69,0,0,1,165.71,578.24Z"/><path class="cls-1" d="M219.33,315.46a356.57,356.57,0,0,1,28.41-36.76,25,25,0,1,0-37.47-33.1,404.62,404.62,0,0,0-32.42,42,25,25,0,1,0,41.48,27.91Z"/><path class="cls-1" d="M395.13,844.67a351.4,351.4,0,0,1-42.7-18.27A25,25,0,1,0,329.76,871a401.07,401.07,0,0,0,48.8,20.87,24.74,24.74,0,0,0,8.28,1.42,25,25,0,0,0,8.29-48.59Z"/><path class="cls-1" d="M703.54,808A354.33,354.33,0,0,1,663,830.62a25,25,0,1,0,21.45,45.17,403.53,403.53,0,0,0,46.3-25.87A25,25,0,1,0,703.54,808Z"/><path class="cls-1" d="M553.64,862.07a359.38,359.38,0,0,1-46.42,2.4h-.34a25,25,0,0,0-.32,50c1.81,0,3.62,0,5.44,0a408.11,408.11,0,0,0,47.48-2.77,25,25,0,1,0-5.84-49.66Z"/><path class="cls-1" d="M882.86,355.32A402.18,402.18,0,0,0,512,109.5c-8.86,0-17.81.29-26.61.87a25,25,0,0,0,1.6,49.94c.55,0,1.1,0,1.66-.05,7.72-.5,15.57-.76,23.35-.76,194.37,0,352.5,158.13,352.5,352.5a350.36,350.36,0,0,1-62.67,200.69h0c-4.42,6.36-9.11,12.67-13.94,18.73A25,25,0,0,0,827,762.59c5.51-6.93,10.87-14.12,15.9-21.38l0,0a403.1,403.1,0,0,0,39.94-385.86Z"/></svg>